HIERARCHY
ROOT Hips
{
	OFFSET -3.958830 18.904000 13.208200
	CHANNELS 6 Xposition Yposition Zposition Zrotation Yrotation Xrotation 
	JOINT LHipJoint
	{
		OFFSET 0.000000 0.000000 0.000000
		CHANNELS 3 Zrotation Yrotation Xrotation
		JOINT LeftUpLeg
		{
			OFFSET 1.800000 -1.400000 0.085000
			CHANNELS 3 Zrotation Yrotation Xrotation
			JOINT LeftLeg
			{
				OFFSET 2.215000 -6.000000 0.000000
				CHANNELS 3 Zrotation Yrotation Xrotation
				JOINT LeftFoot
				{
					OFFSET 2.500000 -6.900000 0.000000
					CHANNELS 3 Zrotation Yrotation Xrotation
					JOINT LeftToeBase
					{
						OFFSET 0.200000 -0.500000 1.950000
						CHANNELS 3 Zrotation Yrotation Xrotation
						End Site
						{
							OFFSET 0.000000 0.000000 0.000000
						}
					}
				}
			}
		}
	}
	JOINT RHipJoint
	{
		OFFSET 0.000000 0.000000 0.000000
		CHANNELS 3 Zrotation Yrotation Xrotation
		JOINT RightUpLeg
		{
			OFFSET -1.800000 -1.400000 0.085000
			CHANNELS 3 Zrotation Yrotation Xrotation
			JOINT RightLeg
			{
				OFFSET -2.215000 -6.000000 0.000000
				CHANNELS 3 Zrotation Yrotation Xrotation
				JOINT RightFoot
				{
					OFFSET -2.500000 -6.900000 0.000000
					CHANNELS 3 Zrotation Yrotation Xrotation
					JOINT RightToeBase
					{
						OFFSET -0.200000 -0.500000 1.950000
						CHANNELS 3 Zrotation Yrotation Xrotation
						End Site
						{
							OFFSET 0.000000 0.000000 0.000000
						}
					}
				}
			}
		}
	}
	JOINT LowerBack
	{
		OFFSET 0.000000 0.000000 0.000000
		CHANNELS 3 Zrotation Yrotation Xrotation
		JOINT Spine
		{
			OFFSET -0.087000 1.940000 -0.288900
			CHANNELS 3 Zrotation Yrotation Xrotation
			JOINT Spine1
			{
				OFFSET 0.000000 1.950000 0.060000
				CHANNELS 3 Zrotation Yrotation Xrotation
				JOINT Neck
				{
					OFFSET 0.000000 0.000000 0.000000
					CHANNELS 3 Zrotation Yrotation Xrotation
					JOINT Neck1
					{
						OFFSET 0.000000 1.600000 0.340000
						CHANNELS 3 Zrotation Yrotation Xrotation
						JOINT Head
						{
							OFFSET 0.000000 1.667000 -0.240000
							CHANNELS 3 Zrotation Yrotation Xrotation
							End Site
							{
								OFFSET 0.000000 0.000000 0.000000
							}
						}
					}
				}
				JOINT LeftShoulder
				{
					OFFSET 0.000000 0.000000 0.000000
					CHANNELS 3 Zrotation Yrotation Xrotation
					JOINT LeftArm
					{
						OFFSET 2.700000 1.550000 -0.730000
						CHANNELS 3 Zrotation Yrotation Xrotation
						JOINT LeftForeArm
						{
							OFFSET 5.450000 0.000000 0.000000
							CHANNELS 3 Zrotation Yrotation Xrotation
							JOINT LeftHand
							{
								OFFSET 3.450000 0.000000 0.000000
								CHANNELS 3 Zrotation Yrotation Xrotation
								JOINT LeftHandIndex1
								{
									OFFSET 0.750000 0.000000 0.000000
									CHANNELS 3 Zrotation Yrotation Xrotation
									End Site
									{
										OFFSET 0.000000 0.000000 0.000000
									}
								}
							}
						}
					}
				}
				JOINT RightShoulder
				{
					OFFSET 0.000000 0.000000 0.000000
					CHANNELS 3 Zrotation Yrotation Xrotation
					JOINT RightArm
					{
						OFFSET -2.700000 1.550000 -0.730000
						CHANNELS 3 Zrotation Yrotation Xrotation
						JOINT RightForeArm
						{
							OFFSET -5.450000 0.000000 0.000000
							CHANNELS 3 Zrotation Yrotation Xrotation
							JOINT RightHand
							{
								OFFSET -3.450000 0.000000 0.000000
								CHANNELS 3 Zrotation Yrotation Xrotation
								JOINT RightHandIndex1
								{
									OFFSET -0.750000 0.000000 0.000000
									CHANNELS 3 Zrotation Yrotation Xrotation
									End Site
									{
										OFFSET 0.000000 0.000000 0.000000
									}
								}
							}
						}
					}
				}
			}
		}
	}
}
MOTION
Frames: 6
Frame Time: 0.016667
0.748260 18.231610 -0.502640 -5.777705 -25.235687 -11.093755 -15.458558 12.066839 2.063216 4.322506 1.125418 1.891491 -11.449160 7.354230 8.548372 -0.609086 5.441894 2.822866 -0.085710 -0.350490 -0.199340 18.685175 -6.395432 7.606961 7.014761 31.847515 -54.276101 -2.073919 -12.765466 90.777555 -2.724415 -13.742569 0.269615 -0.092770 0.482220 -0.090600 -4.132925 -3.851576 -9.451670 24.494182 -6.426457 36.058649 -3.189964 2.196700 1.195590 1.444387 -10.653733 -13.756456 -29.466015 14.157420 43.611216 -6.461410 4.945210 -12.553680 -31.976608 -18.522276 2.257369 -17.684402 -4.214493 -11.543505 25.834649 -70.355606 -19.681948 -3.678826 2.361294 0.832430 0.076460 -0.200370 0.028080 29.419191 25.841280 11.650681 34.752735 7.265924 -3.765465 4.537973 11.869674 0.264772 1.841056 -0.650554 -0.588340 0.738950 0.611100 -0.300900 
0.759790 18.243620 -0.504990 -5.394419 -25.742889 -11.184290 -15.514955 12.084454 2.122081 4.158268 1.268922 2.484363 -11.845761 7.266529 7.451281 -0.543842 5.456950 2.831780 -0.088620 -0.351150 -0.214990 18.643656 -6.250608 7.646779 6.366663 32.272404 -55.004946 -1.777487 -13.164884 91.410482 -2.765307 -13.878782 0.247484 -0.110420 0.484140 -0.084760 -3.991282 -4.114037 -9.536042 23.866350 -6.098097 36.679771 -2.464968 2.478277 0.853037 1.542664 -10.745657 -14.533212 -29.877476 14.397974 43.324817 -6.381570 5.058090 -11.874120 -31.811888 -19.194469 2.628525 -17.046326 -3.360680 -11.499559 23.369038 -69.079398 -17.555964 -3.660408 2.437222 0.822720 0.072430 -0.194900 0.045640 29.392029 26.840157 12.227277 34.277028 6.902804 -3.573732 4.598089 11.032314 0.287894 1.861862 -0.657619 -0.570160 0.722230 0.597090 -0.283390 
0.768400 18.251260 -0.506190 -5.022278 -26.195587 -11.332469 -15.566806 12.113403 2.171883 3.957525 1.394408 2.961912 -12.097728 7.195575 6.639860 -0.501607 5.485054 2.835068 -0.108510 -0.375740 -0.234910 18.604142 -6.122955 7.683682 6.041874 32.567489 -55.460816 -1.819558 -13.184636 91.850346 -2.779361 -13.944581 0.234070 -0.131170 0.493180 -0.081310 -3.853144 -4.365843 -9.614013 23.226139 -5.773397 37.325662 -1.911743 2.774330 0.354372 1.670988 -10.727580 -15.156475 -29.927806 14.561312 43.154925 -6.407190 5.300370 -11.049720 -32.042941 -19.800055 2.847492 -16.067598 -2.676410 -11.330977 20.353913 -67.776963 -15.109342 -3.659006 2.511438 0.820590 0.074570 -0.197640 0.052820 29.661031 27.623886 12.765854 33.804145 6.315281 -3.534379 4.940379 10.626663 0.323212 1.869056 -0.660541 -0.570200 0.710440 0.597730 -0.275260 
0.775370 18.256170 -0.506500 -4.645567 -26.509596 -11.585194 -15.612077 12.158687 2.211388 3.685805 1.526202 3.383813 -12.074444 7.117726 6.099333 -0.459524 5.473912 2.840938 -0.116170 -0.379400 -0.244400 18.566000 -6.024150 7.706914 5.528770 32.784406 -55.973970 -1.619900 -13.476840 92.374500 -2.804269 -14.052541 0.213087 -0.145070 0.483110 -0.085170 -3.718530 -4.599798 -9.681039 22.572820 -5.417067 37.983242 -1.429705 3.075186 -0.040748 1.825647 -10.577765 -15.690715 -29.615470 14.662193 43.199919 -6.600570 5.762980 -10.264900 -32.440303 -20.461321 2.972499 -14.821503 -2.306161 -11.091949 16.701989 -66.268725 -12.278149 -3.650746 2.607586 0.807780 0.071530 -0.198560 0.056770 30.010273 28.329498 13.293044 33.439503 5.572330 -3.621587 5.142532 10.597886 0.333024 1.872289 -0.677993 -0.558380 0.688290 0.589590 -0.271060 
0.782270 18.253550 -0.505040 -4.362581 -26.634130 -11.825017 -15.650416 12.218812 2.233890 3.419946 1.604497 3.592390 -11.880713 7.068387 5.962925 -0.428300 5.463910 2.846534 -0.118550 -0.390280 -0.235690 18.531479 -5.945340 7.725426 5.259102 32.828666 -56.342869 -1.767761 -13.422663 92.751869 -2.815152 -14.099757 0.202138 -0.163450 0.472470 -0.071660 -3.590570 -4.828218 -9.734770 22.014577 -5.129471 38.600104 -1.001670 3.313056 -0.422807 2.004179 -10.378923 -16.058406 -29.109046 14.498231 43.352027 -7.094420 6.122980 -9.643680 -32.831298 -20.982986 3.012674 -13.726751 -2.221040 -10.826124 13.360962 -64.738229 -9.782085 -3.649590 2.687707 0.800830 0.073240 -0.192820 0.056940 30.249298 28.845205 13.707527 33.182441 4.822722 -3.783825 5.453977 10.806547 0.349054 1.872653 -0.697134 -0.542670 0.660180 0.579460 -0.271230 
0.789620 18.249560 -0.500650 -4.039651 -26.687724 -12.165146 -15.683840 12.283467 2.246473 3.103156 1.694518 3.743420 -11.655078 7.057314 6.058473 -0.415081 5.468481 2.849744 -0.127980 -0.408330 -0.240550 18.500288 -5.880864 7.731466 4.913545 32.820969 -56.699554 -1.877668 -13.455821 93.257100 -2.828548 -14.174885 0.185851 -0.177160 0.476710 -0.065970 -3.475638 -5.045484 -9.765072 21.526815 -4.950796 39.413477 -0.675240 3.499683 -1.102434 2.080492 -10.315463 -16.194112 -29.016560 14.433131 43.207144 -7.212940 6.172130 -9.197300 -33.377765 -21.145706 2.853358 -12.752224 -2.516413 -10.408423 9.897536 -62.952668 -7.293481 -3.657358 2.747078 0.799100 0.077180 -0.196990 0.057560 30.811508 28.943904 13.978127 32.701360 3.997984 -4.032099 5.934040 11.219061 0.371808 1.858874 -0.707698 -0.541250 0.650620 0.581670 -0.270720 
